<?xml version="1.0" encoding="UTF-8" standalone="no"?>
<svg
   xmlns:dc="http://purl.org/dc/elements/1.1/"
   xmlns:cc="http://creativecommons.org/ns#"
   xmlns:rdf="http://www.w3.org/1999/02/22-rdf-syntax-ns#"
   xmlns:svg="http://www.w3.org/2000/svg"
   xmlns="http://www.w3.org/2000/svg"
   xmlns:sodipodi="http://sodipodi.sourceforge.net/DTD/sodipodi-0.dtd"
   xmlns:inkscape="http://www.inkscape.org/namespaces/inkscape"
   inkscape:export-ydpi="103.63636"
   inkscape:export-xdpi="103.63636"
   inkscape:export-filename="/home/jrmmendes/mjs-2.png"
   sodipodi:docname="logo-horizontal2.svg"
   inkscape:version="1.0 (4035a4fb49, 2020-05-01)"
   id="svg8"
   version="1.1"
   viewBox="0 0 44.943435 16.271878"
   height="16.271877mm"
   width="44.943436mm">
  <defs
     id="defs2" />
  <sodipodi:namedview
     inkscape:window-maximized="1"
     inkscape:window-y="0"
     inkscape:window-x="0"
     inkscape:window-height="717"
     inkscape:window-width="1366"
     showgrid="false"
     inkscape:document-rotation="0"
     inkscape:current-layer="layer1"
     inkscape:document-units="mm"
     inkscape:cy="41.107701"
     inkscape:cx="87.207655"
     inkscape:zoom="2.0000001"
     inkscape:pageshadow="2"
     inkscape:pageopacity="0.0"
     borderopacity="1.0"
     bordercolor="#666666"
     pagecolor="#ffffff"
     id="base" />
  <metadata
     id="metadata5">
    <rdf:RDF>
      <cc:Work
         rdf:about="">
        <dc:format>image/svg+xml</dc:format>
        <dc:type
           rdf:resource="http://purl.org/dc/dcmitype/StillImage" />
        <dc:title></dc:title>
      </cc:Work>
    </rdf:RDF>
  </metadata>
  <g
     transform="translate(-64.362357,-115.78114)"
     id="layer1"
     inkscape:groupmode="layer"
     inkscape:label="Layer 1">
    <g
       inkscape:label="Layer 1"
       id="layer1-3"
       transform="matrix(0.39935069,0,0,0.39935069,35.094112,67.810808)">
      <rect
         style="fill:#fbc117;fill-opacity:1;stroke:none;stroke-width:0.227;stroke-linecap:round;stroke-linejoin:round"
         id="rect10-5"
         width="40.745834"
         height="40.745834"
         x="73.289581"
         y="120.12083"
         ry="0" />
      <g
         aria-label="mjs"
         id="text837-6"
         style="font-style:normal;font-weight:normal;font-size:16.4892px;line-height:1.25;font-family:sans-serif;fill:#000000;fill-opacity:1;stroke:none;stroke-width:0.41223">
        <path
           d="m 93.2338,144.41816 q -1.005841,0 -1.484028,-0.52765 -0.461697,-0.54414 -0.461697,-1.33563 0,-0.34627 0.08245,-0.77499 0.08245,-0.44521 0.164892,-0.85744 0.09893,-0.41223 0.131913,-0.52765 0.131914,-0.57712 0.247338,-1.13776 0.115425,-0.56063 0.115425,-0.9069 0,-0.84095 -0.593612,-0.84095 -0.428719,0 -0.758503,0.42872 -0.329784,0.41223 -0.527654,1.08829 l -1.121266,5.29303 h -2.374445 l 1.203712,-5.68878 q 0.04947,-0.19787 0.04947,-0.41223 0,-0.72552 -0.494676,-0.72552 -0.461698,0 -0.807971,0.42872 -0.329784,0.41223 -0.527655,1.10478 l -1.121265,5.29303 h -2.374445 l 1.747855,-8.2446 h 2.374445 l -0.181381,0.85744 q 0.840949,-0.93989 2.011682,-0.93989 1.45105,0 1.698388,1.41807 0.906906,-1.40158 2.291999,-1.40158 0.840949,0 1.335625,0.4617 0.494676,0.4617 0.494676,1.40158 0,0.47819 -0.115424,1.0718 -0.115425,0.57712 -0.329784,1.41807 -0.131914,0.51117 -0.247338,1.00584 -0.09894,0.47819 -0.09894,0.75851 0,0.32978 0.148403,0.51116 0.148403,0.18138 0.511165,0.18138 0.494676,0 0.791482,-0.34627 0.296806,-0.36276 0.593611,-1.10478 h 0.692547 q -0.610101,1.81381 -1.418072,2.4404 -0.791481,0.6101 -1.64892,0.6101 z"
           style="font-style:normal;font-variant:normal;font-weight:normal;font-stretch:normal;font-family:Lobster;-inkscape-font-specification:Lobster;stroke-width:0.41223"
           id="path866" />
        <path
           d="m 98.23001,135.16772 q -0.544144,0 -0.923396,-0.37925 -0.379251,-0.37925 -0.379251,-0.92339 0,-0.54415 0.379251,-0.9234 0.379252,-0.39574 0.923396,-0.39574 0.544143,0 0.923395,0.39574 0.395741,0.37925 0.395741,0.9234 0,0.54414 -0.395741,0.92339 -0.379252,0.37925 -0.923395,0.37925 z m -4.105811,13.27381 q -0.791482,0 -1.319136,-0.41223 -0.527655,-0.41223 -0.527655,-1.18722 0,-1.59946 2.704229,-2.45689 l 1.764345,-8.31056 h 2.374445 l -1.632431,7.65099 q 0.791481,-0.26383 1.269668,-0.79148 0.478187,-0.52766 0.807971,-1.56648 h 0.692545 q -0.445207,1.46754 -1.20371,2.16009 -0.758504,0.67605 -1.714877,0.92339 l -0.247338,1.18723 q -0.329784,1.59945 -1.137755,2.19306 -0.807971,0.6101 -1.830301,0.6101 z m -0.379252,-1.28616 q 0.280317,0 0.544144,-0.37925 0.263827,-0.37925 0.41223,-1.08829 l 0.09894,-0.47818 q -1.615942,0.59361 -1.615942,1.40158 0,0.21436 0.148403,0.37925 0.148403,0.16489 0.41223,0.16489 z"
           style="font-style:normal;font-variant:normal;font-weight:normal;font-stretch:normal;font-family:Lobster;-inkscape-font-specification:Lobster;stroke-width:0.41223"
           id="path868" />
        <path
           d="m 101.4454,144.41816 q -0.79148,0 -1.33562,-0.2968 -0.544148,-0.3133 -0.807975,-0.79148 -0.263828,-0.49468 -0.263828,-1.02233 0,-0.54415 0.263828,-0.93989 0.247338,-0.41223 0.6101,-0.59361 0.643075,-1.15424 1.121265,-2.32498 0.47819,-1.18722 0.90691,-2.55582 l 2.4404,-0.32979 q 0.0824,2.11062 0.28031,4.56751 0.0824,0.98935 0.0824,1.43456 0,1.00584 -0.51116,1.64892 -0.51117,0.64308 -1.26967,0.9234 -0.74202,0.28031 -1.51701,0.28031 z m -0.52765,-1.30264 q 0.6101,0 1.02233,-0.36276 0.41223,-0.36277 0.41223,-1.17074 0,-0.49467 -0.0989,-1.38509 -0.16489,-1.87977 -0.21436,-2.52285 -0.39574,1.30265 -1.33562,3.11646 0.37925,0.19787 0.37925,0.57712 0,0.3133 -0.21436,0.56064 -0.19787,0.24733 -0.51117,0.24733 -0.34627,0 -0.445205,-0.21436 0,0.59361 0.230845,0.87393 0.24734,0.28032 0.775,0.28032 z"
           style="font-style:normal;font-variant:normal;font-weight:normal;font-stretch:normal;font-family:Lobster;-inkscape-font-specification:Lobster;stroke-width:0.41223"
           id="path870" />
      </g>
    </g>
    <g
       style="font-style:normal;font-weight:normal;font-size:6.87804px;line-height:1.25;font-family:sans-serif;fill:#000000;fill-opacity:1;stroke:none;stroke-width:0.171951"
       id="text863"
       aria-label="mjsdevs">
      <path
         id="path840"
         style="font-style:normal;font-variant:normal;font-weight:normal;font-stretch:normal;font-family:Barlow;-inkscape-font-specification:Barlow;stroke-width:0.171951"
         d="m 87.599632,122.60609 q 0.515853,0 0.811608,0.30952 0.302634,0.30951 0.302634,0.846 v 2.30414 q 0,0.0688 -0.06878,0.0688 h -0.343902 q -0.06878,0 -0.06878,-0.0688 v -2.20785 q 0,-0.37829 -0.220097,-0.59839 -0.213219,-0.22698 -0.563999,-0.22698 -0.364536,0 -0.591512,0.2201 -0.220097,0.2201 -0.220097,0.59151 v 2.22161 q 0,0.0688 -0.06878,0.0688 h -0.35078 q -0.06878,0 -0.06878,-0.0688 v -2.20785 q 0,-0.37829 -0.213219,-0.59839 -0.213219,-0.22698 -0.570877,-0.22698 -0.364536,0 -0.584634,0.2201 -0.213219,0.2201 -0.213219,0.59151 v 2.22161 q 0,0.0688 -0.06878,0.0688 h -0.35078 q -0.06878,0 -0.06878,-0.0688 v -3.34273 q 0,-0.0688 0.06878,-0.0688 h 0.35078 q 0.06878,0 0.06878,0.0688 v 0.27512 q 0,0.0138 0.0069,0.0206 0.01376,0 0.02751,-0.0138 0.151317,-0.19946 0.38517,-0.29575 0.240732,-0.10318 0.52961,-0.10318 0.357658,0 0.612145,0.14444 0.254488,0.14444 0.38517,0.41956 0.01376,0.0344 0.03439,0 0.151316,-0.282 0.426438,-0.41956 0.275122,-0.14444 0.625902,-0.14444 z" />
      <path
         id="path842"
         style="font-style:normal;font-variant:normal;font-weight:normal;font-stretch:normal;font-family:Barlow;-inkscape-font-specification:Barlow;stroke-width:0.171951"
         d="m 90.027577,122.02146 q -0.171951,0 -0.281999,-0.11005 -0.103171,-0.11005 -0.103171,-0.27512 0,-0.17195 0.103171,-0.27512 0.110048,-0.11005 0.281999,-0.11005 0.165073,0 0.275122,0.11005 0.110049,0.10317 0.110049,0.27512 0,0.16507 -0.110049,0.27512 -0.110049,0.11005 -0.275122,0.11005 z m -0.983559,5.5437 q -0.06878,0 -0.06878,-0.0688 v -0.282 q 0,-0.0688 0.06878,-0.0688 0.73595,-0.007 0.73595,-0.70844 v -3.71414 q 0,-0.0688 0.06878,-0.0688 h 0.35078 q 0.06878,0 0.06878,0.0688 v 3.71414 q 0,0.58464 -0.288878,0.85288 -0.288878,0.26824 -0.935413,0.27512 z" />
      <path
         id="path844"
         style="font-style:normal;font-variant:normal;font-weight:normal;font-stretch:normal;font-family:Barlow;-inkscape-font-specification:Barlow;stroke-width:0.171951"
         d="m 92.593079,126.16892 q -0.38517,0 -0.687804,-0.12381 -0.295756,-0.1238 -0.460829,-0.33014 -0.158195,-0.20634 -0.158195,-0.46083 v -0.0825 q 0,-0.0688 0.06878,-0.0688 h 0.330146 q 0.06878,0 0.06878,0.0688 v 0.055 q 0,0.22697 0.233853,0.39892 0.240732,0.16508 0.59839,0.16508 0.357658,0 0.577755,-0.1582 0.220097,-0.16507 0.220097,-0.41268 0,-0.17195 -0.116926,-0.282 -0.110049,-0.11005 -0.268244,-0.17195 -0.151317,-0.0619 -0.474585,-0.1582 -0.38517,-0.11004 -0.632779,-0.22009 -0.24761,-0.11005 -0.419561,-0.30264 -0.165073,-0.19946 -0.165073,-0.50209 0,-0.4402 0.343902,-0.70156 0.343902,-0.26137 0.907902,-0.26137 0.378292,0 0.66717,0.12381 0.295755,0.1238 0.45395,0.3439 0.158195,0.21322 0.158195,0.48146 v 0.0206 q 0,0.0688 -0.06878,0.0688 h -0.323268 q -0.06878,0 -0.06878,-0.0688 v -0.0206 q 0,-0.23385 -0.226975,-0.39205 -0.220097,-0.15819 -0.598389,-0.15819 -0.35078,0 -0.564,0.14444 -0.213219,0.13756 -0.213219,0.38517 0,0.23385 0.206341,0.35765 0.206342,0.12381 0.639658,0.24761 0.398926,0.11693 0.646536,0.2201 0.247609,0.10317 0.426438,0.30263 0.178829,0.19259 0.178829,0.50898 0,0.44707 -0.35078,0.71532 -0.35078,0.26824 -0.928535,0.26824 z" />
      <path
         id="path846"
         style="font-weight:bold"
         d="m 96.761164,121.40244 q 0,-0.0344 0.02064,-0.055 0.02751,-0.0275 0.0619,-0.0275 h 0.804731 q 0.03439,0 0.05502,0.0275 0.02751,0.0206 0.02751,0.055 v 4.64955 q 0,0.0344 -0.02751,0.0619 -0.02063,0.0206 -0.05502,0.0206 h -0.804731 q -0.03439,0 -0.0619,-0.0206 -0.02064,-0.0275 -0.02064,-0.0619 v -0.22697 q 0,-0.0206 -0.01376,-0.0206 -0.01376,-0.007 -0.02751,0.007 -0.288878,0.37829 -0.790974,0.37829 -0.481463,0 -0.832243,-0.26824 -0.343902,-0.26824 -0.495219,-0.73595 -0.116927,-0.35766 -0.116927,-0.83224 0,-0.48834 0.123805,-0.85288 0.158195,-0.44019 0.495219,-0.69468 0.343902,-0.26137 0.845999,-0.26137 0.495219,0 0.77034,0.3439 0.01376,0.0206 0.02751,0.0138 0.01376,-0.007 0.01376,-0.0275 z m -0.144438,3.65911 q 0.13756,-0.25448 0.13756,-0.69468 0,-0.46083 -0.151317,-0.72219 -0.158194,-0.26824 -0.460828,-0.26824 -0.323268,0 -0.488341,0.26824 -0.171951,0.26824 -0.171951,0.72907 0,0.41268 0.144439,0.6878 0.171951,0.29576 0.508975,0.29576 0.309512,0 0.481463,-0.29576 z" />
      <path
         id="path848"
         style="font-weight:bold"
         d="m 101.58955,124.00234 q 0.0413,0.26136 0.0275,0.58463 -0.007,0.0825 -0.0894,0.0825 h -2.125319 q -0.04127,0 -0.02751,0.0344 0.02063,0.13756 0.07566,0.27512 0.178829,0.38517 0.729072,0.38517 0.44019,-0.007 0.69468,-0.35766 0.0275,-0.0413 0.0619,-0.0413 0.0206,0 0.0481,0.0275 l 0.49522,0.48835 q 0.0344,0.0344 0.0344,0.0619 0,0.0138 -0.0275,0.055 -0.22698,0.282 -0.58464,0.4402 -0.35765,0.15131 -0.78409,0.15131 -0.591514,0 -1.004196,-0.26824 -0.405805,-0.26824 -0.584634,-0.74971 -0.144439,-0.3439 -0.144439,-0.90102 0,-0.37829 0.103171,-0.66717 0.158195,-0.48834 0.550243,-0.77722 0.398926,-0.28888 0.942292,-0.28888 0.687803,0 1.100483,0.39893 0.41956,0.39893 0.50898,1.0661 z m -1.602585,-0.6259 q -0.433317,0 -0.570878,0.4058 -0.02751,0.0894 -0.04815,0.2201 0,0.0344 0.03439,0.0344 h 1.189899 q 0.0413,0 0.0275,-0.0344 -0.0344,-0.19947 -0.0344,-0.19259 -0.0619,-0.20634 -0.22009,-0.31639 -0.15132,-0.11692 -0.378295,-0.11692 z" />
      <path
         id="path850"
         style="font-weight:bold"
         d="m 103.00641,126.13453 q -0.0688,0 -0.0894,-0.0688 l -1.10048,-3.37712 q -0.007,-0.0138 -0.007,-0.0344 0,-0.0619 0.0757,-0.0619 h 0.88726 q 0.0757,0 0.0963,0.0688 l 0.564,2.08405 q 0.007,0.0206 0.0206,0.0206 0.0138,0 0.0206,-0.0206 l 0.564,-2.08405 q 0.0206,-0.0688 0.0963,-0.0688 l 0.88726,0.0138 q 0.0413,0 0.0619,0.0275 0.0206,0.0206 0.007,0.0688 l -1.0936,3.36336 q -0.0206,0.0688 -0.0894,0.0688 z" />
      <path
         id="path852"
         style="font-weight:bold"
         d="m 106.7618,126.18268 q -0.46083,0 -0.80473,-0.13069 -0.3439,-0.13068 -0.53649,-0.36453 -0.1857,-0.23386 -0.1857,-0.52961 v -0.0688 q 0,-0.0344 0.0206,-0.055 0.0275,-0.0275 0.0619,-0.0275 h 0.76346 q 0.0344,0 0.055,0.0275 0.0275,0.0206 0.0275,0.055 v 0.007 q 0,0.15131 0.16507,0.26136 0.17196,0.10317 0.42644,0.10317 0.23386,0 0.37829,-0.0894 0.14444,-0.0963 0.14444,-0.23386 0,-0.1238 -0.1238,-0.1857 -0.12381,-0.0619 -0.40581,-0.13069 -0.32326,-0.0825 -0.50897,-0.15819 -0.44019,-0.15132 -0.70156,-0.37142 -0.26137,-0.22009 -0.26137,-0.63278 0,-0.50897 0.39205,-0.80473 0.39893,-0.30263 1.05234,-0.30263 0.4402,0 0.77034,0.14444 0.33015,0.13756 0.50898,0.39205 0.1857,0.25448 0.1857,0.57775 0,0.0344 -0.0275,0.0619 -0.0206,0.0206 -0.055,0.0206 h -0.73595 q -0.0344,0 -0.0619,-0.0206 -0.0206,-0.0275 -0.0206,-0.0619 0,-0.15131 -0.15819,-0.25448 -0.15132,-0.10318 -0.40581,-0.10318 -0.22697,0 -0.37141,0.0825 -0.14444,0.0825 -0.14444,0.22698 0,0.13756 0.13756,0.20634 0.14444,0.0688 0.47458,0.14444 0.0757,0.0206 0.17196,0.0481 0.0963,0.0206 0.20634,0.055 0.48834,0.14444 0.77034,0.37141 0.282,0.22698 0.282,0.66029 0,0.50898 -0.40581,0.79786 -0.39892,0.282 -1.07985,0.282 z" />
    </g>
  </g>
</svg>
