<?xml version="1.0" encoding="UTF-8" standalone="no"?>
<svg
   xmlns:dc="http://purl.org/dc/elements/1.1/"
   xmlns:cc="http://creativecommons.org/ns#"
   xmlns:rdf="http://www.w3.org/1999/02/22-rdf-syntax-ns#"
   xmlns:svg="http://www.w3.org/2000/svg"
   xmlns="http://www.w3.org/2000/svg"
   xmlns:sodipodi="http://sodipodi.sourceforge.net/DTD/sodipodi-0.dtd"
   xmlns:inkscape="http://www.inkscape.org/namespaces/inkscape"
   width="92.582748mm"
   height="30.1625mm"
   viewBox="0 0 92.582747 30.1625"
   version="1.1"
   id="svg8"
   inkscape:version="1.0 (4035a4fb49, 2020-05-01)"
   sodipodi:docname="logo-with-text.svg">
  <defs
     id="defs2" />
  <sodipodi:namedview
     id="base"
     pagecolor="#ffffff"
     bordercolor="#666666"
     borderopacity="1.0"
     inkscape:pageopacity="0.0"
     inkscape:pageshadow="2"
     inkscape:zoom="1"
     inkscape:cx="112.00001"
     inkscape:cy="114.42686"
     inkscape:document-units="mm"
     inkscape:current-layer="layer1"
     inkscape:document-rotation="0"
     showgrid="false"
     inkscape:window-width="1366"
     inkscape:window-height="720"
     inkscape:window-x="0"
     inkscape:window-y="0"
     inkscape:window-maximized="0" />
  <metadata
     id="metadata5">
    <rdf:RDF>
      <cc:Work
         rdf:about="">
        <dc:format>image/svg+xml</dc:format>
        <dc:type
           rdf:resource="http://purl.org/dc/dcmitype/StillImage" />
        <dc:title />
      </cc:Work>
    </rdf:RDF>
  </metadata>
  <g
     inkscape:label="Layer 1"
     inkscape:groupmode="layer"
     id="layer1"
     transform="translate(-57.414581,-108.74375)">
    <rect
       style="fill:#f1da00;fill-opacity:1;stroke-width:1.3;stroke-linecap:round;stroke-linejoin:round"
       id="rect10"
       width="30.1625"
       height="30.1625"
       x="57.414581"
       y="108.74375"
       ry="0" />
    <g
       aria-label="mjs"
       id="text837"
       style="font-style:normal;font-variant:normal;font-weight:normal;font-stretch:normal;font-size:10.5833px;line-height:1.25;font-family:Pacifico;-inkscape-font-specification:Pacifico;fill:#000000;fill-opacity:1;stroke:none;stroke-width:0.264583">
      <path
         d="m 64.685363,126.48141 h 0.613832 v -4.22274 c 0.592664,-0.67733 1.132413,-1.016 1.629828,-1.016 0.83608,0 1.217079,0.53975 1.217079,1.7145 v 3.52424 h 0.613832 v -4.22274 c 0.603248,-0.67733 1.121829,-1.016 1.629828,-1.016 0.825497,0 1.217079,0.53975 1.217079,1.7145 v 3.52424 h 0.613832 v -3.60891 c 0,-1.44991 -0.560915,-2.18016 -1.693328,-2.18016 -0.656165,0 -1.269996,0.45508 -1.904994,1.143 -0.201083,-0.68792 -0.656165,-1.143 -1.555745,-1.143 -0.634998,0 -1.269996,0.4445 -1.777995,1.00542 h -0.02117 l -0.07408,-0.85725 h -0.507999 z"
         style="font-style:normal;font-variant:normal;font-weight:300;font-stretch:normal;font-family:'Noto Sans CJK HK';-inkscape-font-specification:'Noto Sans CJK HK Light';stroke-width:0.264583"
         id="path861" />
      <path
         d="m 73.543578,129.13782 c 0.920747,0 1.333496,-0.58209 1.333496,-1.70392 v -6.59339 h -0.624415 v 6.57223 c 0,0.70908 -0.116416,1.20649 -0.740831,1.20649 -0.222249,0 -0.433915,-0.0635 -0.582081,-0.11641 l -0.137583,0.48683 c 0.179916,0.0847 0.465665,0.14817 0.751414,0.14817 z m 1.005414,-9.62022 c 0.285749,0 0.486831,-0.20109 0.486831,-0.51859 0,-0.29633 -0.201082,-0.48683 -0.486831,-0.48683 -0.285749,0 -0.486832,0.1905 -0.486832,0.48683 0,0.3175 0.201083,0.51859 0.486832,0.51859 z"
         style="font-style:normal;font-variant:normal;font-weight:300;font-stretch:normal;font-family:'Noto Sans CJK HK';-inkscape-font-specification:'Noto Sans CJK HK Light';stroke-width:0.264583"
         id="path863" />
      <path
         d="m 78.369556,126.61899 c 1.24883,0 1.936744,-0.74083 1.936744,-1.60866 0,-1.09008 -0.952497,-1.397 -1.820327,-1.72508 -0.656165,-0.24342 -1.269996,-0.47625 -1.269996,-1.10066 0,-0.508 0.380999,-0.97367 1.227663,-0.97367 0.550331,0 0.941913,0.22225 1.322912,0.508 l 0.328082,-0.42333 c -0.412748,-0.33867 -1.015996,-0.60325 -1.640411,-0.60325 -1.195913,0 -1.852078,0.6985 -1.852078,1.524 0,0.97366 0.888998,1.32291 1.725078,1.61924 0.656165,0.23283 1.365246,0.53975 1.365246,1.2065 0,0.58208 -0.433915,1.06891 -1.291163,1.06891 -0.772581,0 -1.291162,-0.30691 -1.777994,-0.70908 l -0.328082,0.4445 c 0.518581,0.42333 1.248829,0.77258 2.074326,0.77258 z"
         style="font-style:normal;font-variant:normal;font-weight:300;font-stretch:normal;font-family:'Noto Sans CJK HK';-inkscape-font-specification:'Noto Sans CJK HK Light';stroke-width:0.264583"
         id="path865" />
    </g>
    <g
       transform="matrix(0.84894217,0,0,0.84894217,13.226008,19.498486)"
       aria-label="Community"
       id="text901"
       style="font-style:normal;font-weight:normal;font-size:10.5833px;line-height:1.25;font-family:sans-serif;fill:#000000;fill-opacity:1;stroke:none;stroke-width:0.264583">
      <path
         d="m 97.821733,126.6772 c 0.99483,0 1.714494,-0.41275 2.307157,-1.10066 l -0.35983,-0.40217 c -0.550332,0.60325 -1.132413,0.93133 -1.915578,0.93133 -1.619244,0 -2.624658,-1.34407 -2.624658,-3.45015 0,-2.08491 1.02658,-3.39724 2.656408,-3.39724 0.709081,0 1.259413,0.30691 1.672162,0.77258 l 0.359832,-0.41275 c -0.412749,-0.48683 -1.12183,-0.93133 -2.031994,-0.93133 -1.95791,0 -3.323156,1.524 -3.323156,3.98991 0,2.4659 1.354663,4.00048 3.259657,4.00048 z"
         style="font-style:normal;font-variant:normal;font-weight:300;font-stretch:normal;font-family:'Noto Sans CJK HK';-inkscape-font-specification:'Noto Sans CJK HK Light';stroke-width:0.264583"
         id="path837" />
      <path
         d="m 103.70604,126.6772 c 1.36524,0 2.55057,-1.07949 2.55057,-2.95274 0,-1.88383 -1.18533,-2.97391 -2.55057,-2.97391 -1.36525,0 -2.55058,1.09008 -2.55058,2.97391 0,1.87325 1.18533,2.95274 2.55058,2.95274 z m 0,-0.52916 c -1.10067,0 -1.905,-0.98425 -1.905,-2.42358 0,-1.43933 0.80433,-2.43416 1.905,-2.43416 1.10066,0 1.91557,0.99483 1.91557,2.43416 0,1.43933 -0.81491,2.42358 -1.91557,2.42358 z"
         style="font-style:normal;font-variant:normal;font-weight:300;font-stretch:normal;font-family:'Noto Sans CJK HK';-inkscape-font-specification:'Noto Sans CJK HK Light';stroke-width:0.264583"
         id="path839" />
      <path
         d="m 107.9076,126.53962 h 0.61384 v -4.22274 c 0.59266,-0.67733 1.13241,-1.01599 1.62982,-1.01599 0.83608,0 1.21708,0.53974 1.21708,1.71449 v 3.52424 h 0.61383 v -4.22274 c 0.60325,-0.67733 1.12183,-1.01599 1.62983,-1.01599 0.8255,0 1.21708,0.53974 1.21708,1.71449 v 3.52424 h 0.61383 v -3.60891 c 0,-1.44991 -0.56091,-2.18016 -1.69332,-2.18016 -0.65617,0 -1.27,0.45509 -1.905,1.143 -0.20108,-0.68791 -0.65616,-1.143 -1.55574,-1.143 -0.635,0 -1.27,0.4445 -1.778,1.00542 h -0.0212 l -0.0741,-0.85725 h -0.508 z"
         style="font-style:normal;font-variant:normal;font-weight:300;font-stretch:normal;font-family:'Noto Sans CJK HK';-inkscape-font-specification:'Noto Sans CJK HK Light';stroke-width:0.264583"
         id="path841" />
      <path
         d="m 117.4749,126.53962 h 0.61383 v -4.22274 c 0.59267,-0.67733 1.13242,-1.01599 1.62983,-1.01599 0.83608,0 1.21708,0.53974 1.21708,1.71449 v 3.52424 h 0.61383 v -4.22274 c 0.60325,-0.67733 1.12183,-1.01599 1.62983,-1.01599 0.8255,0 1.21708,0.53974 1.21708,1.71449 v 3.52424 h 0.61383 v -3.60891 c 0,-1.44991 -0.56091,-2.18016 -1.69333,-2.18016 -0.65616,0 -1.26999,0.45509 -1.90499,1.143 -0.20108,-0.68791 -0.65617,-1.143 -1.55575,-1.143 -0.63499,0 -1.26999,0.4445 -1.77799,1.00542 h -0.0212 l -0.0741,-0.85725 h -0.508 z"
         style="font-style:normal;font-variant:normal;font-weight:300;font-stretch:normal;font-family:'Noto Sans CJK HK';-inkscape-font-specification:'Noto Sans CJK HK Light';stroke-width:0.264583"
         id="path843" />
      <path
         d="m 128.66144,126.6772 c 0.78317,0 1.35466,-0.43391 1.905,-1.06891 h 0.0317 l 0.0529,0.93133 h 0.51858 v -5.6409 h -0.61383 v 4.12749 c -0.63499,0.762 -1.10066,1.10066 -1.75682,1.10066 -0.86784,0 -1.22767,-0.53975 -1.22767,-1.69333 v -3.53482 h -0.61383 v 3.60891 c 0,1.44991 0.52917,2.16957 1.70391,2.16957 z"
         style="font-style:normal;font-variant:normal;font-weight:300;font-stretch:normal;font-family:'Noto Sans CJK HK';-inkscape-font-specification:'Noto Sans CJK HK Light';stroke-width:0.264583"
         id="path845" />
      <path
         d="m 133.28632,126.53962 h 0.61383 v -4.22274 c 0.65617,-0.67733 1.12183,-1.01599 1.778,-1.01599 0.86783,0 1.23824,0.53974 1.23824,1.71449 v 3.52424 h 0.61384 v -3.60891 c 0,-1.44991 -0.53975,-2.18016 -1.7145,-2.18016 -0.77258,0 -1.35466,0.4445 -1.92616,1.00542 h -0.0212 l -0.0741,-0.85725 h -0.508 z"
         style="font-style:normal;font-variant:normal;font-weight:300;font-stretch:normal;font-family:'Noto Sans CJK HK';-inkscape-font-specification:'Noto Sans CJK HK Light';stroke-width:0.264583"
         id="path847" />
      <path
         d="m 139.56221,126.53962 h 0.61383 v -5.6409 h -0.61383 z m 0.31749,-6.96381 c 0.27517,0 0.48684,-0.20108 0.48684,-0.51858 0,-0.29634 -0.21167,-0.48684 -0.48684,-0.48684 -0.28574,0 -0.49741,0.1905 -0.49741,0.48684 0,0.3175 0.21167,0.51858 0.49741,0.51858 z"
         style="font-style:normal;font-variant:normal;font-weight:300;font-stretch:normal;font-family:'Noto Sans CJK HK';-inkscape-font-specification:'Noto Sans CJK HK Light';stroke-width:0.264583"
         id="path849" />
      <path
         d="m 143.86961,126.6772 c 0.254,0 0.61383,-0.0952 0.94191,-0.21166 l -0.14817,-0.48684 c -0.20108,0.0952 -0.47624,0.16934 -0.68791,0.16934 -0.75141,0 -0.94191,-0.46567 -0.94191,-1.17475 v -3.55599 h 1.61924 v -0.51858 h -1.61924 v -1.62983 h -0.51859 l -0.0741,1.62983 -0.89958,0.0529 v 0.46566 h 0.87841 v 3.51366 c 0,1.04774 0.33867,1.74624 1.44992,1.74624 z"
         style="font-style:normal;font-variant:normal;font-weight:300;font-stretch:normal;font-family:'Noto Sans CJK HK';-inkscape-font-specification:'Noto Sans CJK HK Light';stroke-width:0.264583"
         id="path851" />
      <path
         d="m 145.84868,129.07961 c 1.03716,0 1.61924,-0.91016 1.94732,-1.88383 l 2.20133,-6.29706 h -0.62441 l -1.15358,3.45016 c -0.15875,0.48683 -0.33867,1.07949 -0.508,1.58749 h -0.0529 c -0.20108,-0.508 -0.41275,-1.10066 -0.59266,-1.58749 l -1.31233,-3.45016 h -0.66675 l 2.30716,5.72557 -0.14817,0.47624 c -0.27516,0.81492 -0.73024,1.42875 -1.40758,1.42875 -0.15875,0 -0.33866,-0.0423 -0.45508,-0.0847 l -0.13758,0.51859 c 0.15875,0.0741 0.381,0.11641 0.60325,0.11641 z"
         style="font-style:normal;font-variant:normal;font-weight:300;font-stretch:normal;font-family:'Noto Sans CJK HK';-inkscape-font-specification:'Noto Sans CJK HK Light';stroke-width:0.264583"
         id="path853" />
    </g>
  </g>
</svg>
