<?xml version="1.0" encoding="UTF-8" standalone="no"?>
<svg
   xmlns:dc="http://purl.org/dc/elements/1.1/"
   xmlns:cc="http://creativecommons.org/ns#"
   xmlns:rdf="http://www.w3.org/1999/02/22-rdf-syntax-ns#"
   xmlns:svg="http://www.w3.org/2000/svg"
   xmlns="http://www.w3.org/2000/svg"
   xmlns:sodipodi="http://sodipodi.sourceforge.net/DTD/sodipodi-0.dtd"
   xmlns:inkscape="http://www.inkscape.org/namespaces/inkscape"
   inkscape:export-ydpi="103.63636"
   inkscape:export-xdpi="103.63636"
   inkscape:export-filename="/home/jrmmendes/mjs-2.png"
   sodipodi:docname="logo-with-description.svg"
   inkscape:version="1.0 (4035a4fb49, 2020-05-01)"
   id="svg8"
   version="1.1"
   viewBox="0 0 55.851409 16.548142"
   height="16.548141mm"
   width="55.85141mm">
  <defs
     id="defs2" />
  <sodipodi:namedview
     inkscape:window-maximized="0"
     inkscape:window-y="0"
     inkscape:window-x="0"
     inkscape:window-height="720"
     inkscape:window-width="1366"
     showgrid="false"
     inkscape:document-rotation="0"
     inkscape:current-layer="layer1"
     inkscape:document-units="mm"
     inkscape:cy="41.977815"
     inkscape:cx="63.239029"
     inkscape:zoom="2.0000001"
     inkscape:pageshadow="2"
     inkscape:pageopacity="0.0"
     borderopacity="1.0"
     bordercolor="#666666"
     pagecolor="#ffffff"
     id="base" />
  <metadata
     id="metadata5">
    <rdf:RDF>
      <cc:Work
         rdf:about="">
        <dc:format>image/svg+xml</dc:format>
        <dc:type
           rdf:resource="http://purl.org/dc/dcmitype/StillImage" />
        <dc:title />
      </cc:Work>
    </rdf:RDF>
  </metadata>
  <g
     transform="translate(-64.221764,-115.55093)"
     id="layer1"
     inkscape:groupmode="layer"
     inkscape:label="Layer 1">
    <rect
       ry="2.245064"
       y="115.55093"
       x="64.221764"
       height="16.548141"
       width="16.548141"
       id="rect10"
       style="fill:#f1da00;fill-opacity:1;stroke-width:0.713224;stroke-linecap:round;stroke-linejoin:round" />
    <g
       transform="matrix(0.5373676,0,0,0.5373676,33.538921,57.285457)"
       style="font-style:normal;font-variant:normal;font-weight:normal;font-stretch:normal;font-size:10.5833px;line-height:1.25;font-family:Pacifico;-inkscape-font-specification:Pacifico;fill:#000000;fill-opacity:1;stroke:none;stroke-width:0.264583"
       id="text837"
       aria-label="mjs">
      <path
         id="path861"
         style="font-style:normal;font-variant:normal;font-weight:300;font-stretch:normal;font-family:'Noto Sans CJK HK';-inkscape-font-specification:'Noto Sans CJK HK Light';stroke-width:0.264583"
         d="m 64.685363,126.48141 h 0.613832 v -4.22274 c 0.592664,-0.67733 1.132413,-1.016 1.629828,-1.016 0.83608,0 1.217079,0.53975 1.217079,1.7145 v 3.52424 h 0.613832 v -4.22274 c 0.603248,-0.67733 1.121829,-1.016 1.629828,-1.016 0.825497,0 1.217079,0.53975 1.217079,1.7145 v 3.52424 h 0.613832 v -3.60891 c 0,-1.44991 -0.560915,-2.18016 -1.693328,-2.18016 -0.656165,0 -1.269996,0.45508 -1.904994,1.143 -0.201083,-0.68792 -0.656165,-1.143 -1.555745,-1.143 -0.634998,0 -1.269996,0.4445 -1.777995,1.00542 h -0.02117 l -0.07408,-0.85725 h -0.507999 z" />
      <path
         id="path863"
         style="font-style:normal;font-variant:normal;font-weight:300;font-stretch:normal;font-family:'Noto Sans CJK HK';-inkscape-font-specification:'Noto Sans CJK HK Light';stroke-width:0.264583"
         d="m 73.543578,129.13782 c 0.920747,0 1.333496,-0.58209 1.333496,-1.70392 v -6.59339 h -0.624415 v 6.57223 c 0,0.70908 -0.116416,1.20649 -0.740831,1.20649 -0.222249,0 -0.433915,-0.0635 -0.582081,-0.11641 l -0.137583,0.48683 c 0.179916,0.0847 0.465665,0.14817 0.751414,0.14817 z m 1.005414,-9.62022 c 0.285749,0 0.486831,-0.20109 0.486831,-0.51859 0,-0.29633 -0.201082,-0.48683 -0.486831,-0.48683 -0.285749,0 -0.486832,0.1905 -0.486832,0.48683 0,0.3175 0.201083,0.51859 0.486832,0.51859 z" />
      <path
         id="path865"
         style="font-style:normal;font-variant:normal;font-weight:300;font-stretch:normal;font-family:'Noto Sans CJK HK';-inkscape-font-specification:'Noto Sans CJK HK Light';stroke-width:0.264583"
         d="m 78.369556,126.61899 c 1.24883,0 1.936744,-0.74083 1.936744,-1.60866 0,-1.09008 -0.952497,-1.397 -1.820327,-1.72508 -0.656165,-0.24342 -1.269996,-0.47625 -1.269996,-1.10066 0,-0.508 0.380999,-0.97367 1.227663,-0.97367 0.550331,0 0.941913,0.22225 1.322912,0.508 l 0.328082,-0.42333 c -0.412748,-0.33867 -1.015996,-0.60325 -1.640411,-0.60325 -1.195913,0 -1.852078,0.6985 -1.852078,1.524 0,0.97366 0.888998,1.32291 1.725078,1.61924 0.656165,0.23283 1.365246,0.53975 1.365246,1.2065 0,0.58208 -0.433915,1.06891 -1.291163,1.06891 -0.772581,0 -1.291162,-0.30691 -1.777994,-0.70908 l -0.328082,0.4445 c 0.518581,0.42333 1.248829,0.77258 2.074326,0.77258 z" />
    </g>
    <g
       transform="translate(-2.1166667)"
       aria-label="Community"
       id="text904"
       style="font-style:normal;font-weight:normal;font-size:6.56371px;line-height:1.25;font-family:sans-serif;fill:#000000;fill-opacity:1;stroke:none;stroke-width:0.102332;stroke-miterlimit:4;stroke-dasharray:none">
      <path
         d="m 87.714129,125.87956 c 0.616988,0 1.063321,-0.25599 1.430888,-0.68263 l -0.223166,-0.24942 c -0.341313,0.37413 -0.702317,0.57761 -1.188031,0.57761 -1.004248,0 -1.6278,-0.8336 -1.6278,-2.13977 0,-1.29305 0.636679,-2.10696 1.647491,-2.10696 0.439768,0 0.781081,0.19035 1.037066,0.47916 l 0.223166,-0.25599 c -0.255985,-0.30193 -0.695753,-0.57761 -1.260232,-0.57761 -1.214287,0 -2.061005,0.94518 -2.061005,2.47452 0,1.52935 0.840155,2.48109 2.021623,2.48109 z"
         style="font-style:normal;font-variant:normal;font-weight:300;font-stretch:normal;font-family:'Noto Sans CJK HK';-inkscape-font-specification:'Noto Sans CJK HK Light';fill:#000000;fill-opacity:1;stroke:none;stroke-width:0.102332;stroke-miterlimit:4;stroke-dasharray:none"
         id="path837" />
      <path
         d="m 91.363544,125.87956 c 0.846719,0 1.581854,-0.6695 1.581854,-1.83128 0,-1.16834 -0.735135,-1.8444 -1.581854,-1.8444 -0.846719,0 -1.581854,0.67606 -1.581854,1.8444 0,1.16178 0.735135,1.83128 1.581854,1.83128 z m 0,-0.32819 c -0.682626,0 -1.181468,-0.61042 -1.181468,-1.50309 0,-0.89266 0.498842,-1.50965 1.181468,-1.50965 0.682626,0 1.188032,0.61699 1.188032,1.50965 0,0.89267 -0.505406,1.50309 -1.188032,1.50309 z"
         style="font-style:normal;font-variant:normal;font-weight:300;font-stretch:normal;font-family:'Noto Sans CJK HK';-inkscape-font-specification:'Noto Sans CJK HK Light';fill:#000000;fill-opacity:1;stroke:none;stroke-width:0.102332;stroke-miterlimit:4;stroke-dasharray:none"
         id="path839" />
      <path
         d="m 93.969336,125.79423 h 0.380696 v -2.61892 c 0.367567,-0.42008 0.702317,-0.63012 1.010811,-0.63012 0.518533,0 0.754827,0.33475 0.754827,1.06332 v 2.18572 h 0.380695 v -2.61892 c 0.374131,-0.42008 0.695753,-0.63012 1.010811,-0.63012 0.51197,0 0.754827,0.33475 0.754827,1.06332 v 2.18572 h 0.380695 V 123.556 c 0,-0.89923 -0.347877,-1.35212 -1.050194,-1.35212 -0.40695,0 -0.787645,0.28224 -1.181467,0.70888 -0.124711,-0.42664 -0.40695,-0.70888 -0.964866,-0.70888 -0.393822,0 -0.787645,0.27567 -1.102703,0.62355 h -0.01313 l -0.04595,-0.53166 h -0.315059 z"
         style="font-style:normal;font-variant:normal;font-weight:300;font-stretch:normal;font-family:'Noto Sans CJK HK';-inkscape-font-specification:'Noto Sans CJK HK Light';fill:#000000;fill-opacity:1;stroke:none;stroke-width:0.102332;stroke-miterlimit:4;stroke-dasharray:none"
         id="path841" />
      <path
         d="m 99.902925,125.79423 h 0.380695 v -2.61892 c 0.36757,-0.42008 0.70232,-0.63012 1.01081,-0.63012 0.51854,0 0.75483,0.33475 0.75483,1.06332 v 2.18572 h 0.38069 v -2.61892 c 0.37414,-0.42008 0.69576,-0.63012 1.01082,-0.63012 0.51196,0 0.75482,0.33475 0.75482,1.06332 v 2.18572 h 0.3807 V 123.556 c 0,-0.89923 -0.34788,-1.35212 -1.0502,-1.35212 -0.40695,0 -0.78764,0.28224 -1.18146,0.70888 -0.12471,-0.42664 -0.40695,-0.70888 -0.96487,-0.70888 -0.39382,0 -0.78765,0.27567 -1.1027,0.62355 h -0.0131 l -0.046,-0.53166 h -0.315055 z"
         style="font-style:normal;font-variant:normal;font-weight:300;font-stretch:normal;font-family:'Noto Sans CJK HK';-inkscape-font-specification:'Noto Sans CJK HK Light';fill:#000000;fill-opacity:1;stroke:none;stroke-width:0.102332;stroke-miterlimit:4;stroke-dasharray:none"
         id="path843" />
      <path
         d="m 106.84076,125.87956 c 0.48572,0 0.84016,-0.26912 1.18147,-0.66294 h 0.0197 l 0.0328,0.57761 h 0.32162 v -3.49846 h -0.38069 v 2.55985 c -0.39383,0.47258 -0.68263,0.68262 -1.08958,0.68262 -0.53822,0 -0.76139,-0.33475 -0.76139,-1.05019 v -2.19228 h -0.3807 v 2.23823 c 0,0.89922 0.32819,1.34556 1.05676,1.34556 z"
         style="font-style:normal;font-variant:normal;font-weight:300;font-stretch:normal;font-family:'Noto Sans CJK HK';-inkscape-font-specification:'Noto Sans CJK HK Light';fill:#000000;fill-opacity:1;stroke:none;stroke-width:0.102332;stroke-miterlimit:4;stroke-dasharray:none"
         id="path845" />
      <path
         d="m 109.70909,125.79423 h 0.3807 v -2.61892 c 0.40695,-0.42008 0.69575,-0.63012 1.1027,-0.63012 0.53822,0 0.76795,0.33475 0.76795,1.06332 v 2.18572 h 0.3807 V 123.556 c 0,-0.89923 -0.33475,-1.35212 -1.06332,-1.35212 -0.47915,0 -0.84016,0.27567 -1.1946,0.62355 h -0.0131 l -0.0459,-0.53166 h -0.31506 z"
         style="font-style:normal;font-variant:normal;font-weight:300;font-stretch:normal;font-family:'Noto Sans CJK HK';-inkscape-font-specification:'Noto Sans CJK HK Light';fill:#000000;fill-opacity:1;stroke:none;stroke-width:0.102332;stroke-miterlimit:4;stroke-dasharray:none"
         id="path847" />
      <path
         d="m 113.60136,125.79423 h 0.3807 v -3.49846 h -0.3807 z m 0.19691,-4.31892 c 0.17066,0 0.30194,-0.12471 0.30194,-0.32163 0,-0.18378 -0.13128,-0.30193 -0.30194,-0.30193 -0.17722,0 -0.30849,0.11815 -0.30849,0.30193 0,0.19692 0.13127,0.32163 0.30849,0.32163 z"
         style="font-style:normal;font-variant:normal;font-weight:300;font-stretch:normal;font-family:'Noto Sans CJK HK';-inkscape-font-specification:'Noto Sans CJK HK Light';fill:#000000;fill-opacity:1;stroke:none;stroke-width:0.102332;stroke-miterlimit:4;stroke-dasharray:none"
         id="path849" />
      <path
         d="m 116.27279,125.87956 c 0.15753,0 0.3807,-0.0591 0.58417,-0.13128 l -0.0919,-0.30193 c -0.12471,0.0591 -0.29537,0.10502 -0.42664,0.10502 -0.46602,0 -0.58417,-0.2888 -0.58417,-0.72857 v -2.20541 h 1.00425 v -0.32162 h -1.00425 v -1.01081 h -0.32162 l -0.046,1.01081 -0.55791,0.0328 v 0.2888 h 0.54478 v 2.17915 c 0,0.64981 0.21004,1.08302 0.89923,1.08302 z"
         style="font-style:normal;font-variant:normal;font-weight:300;font-stretch:normal;font-family:'Noto Sans CJK HK';-inkscape-font-specification:'Noto Sans CJK HK Light';fill:#000000;fill-opacity:1;stroke:none;stroke-width:0.102332;stroke-miterlimit:4;stroke-dasharray:none"
         id="path851" />
      <path
         d="m 117.5002,127.36952 c 0.64324,0 1.00425,-0.56448 1.20772,-1.16834 l 1.36526,-3.90541 h -0.38726 l -0.71545,2.13977 c -0.0984,0.30193 -0.21004,0.6695 -0.31506,0.98456 h -0.0328 c -0.12472,-0.31506 -0.25599,-0.68263 -0.36757,-0.98456 l -0.8139,-2.13977 h -0.41352 l 1.43089,3.55097 -0.0919,0.29536 c -0.17066,0.50541 -0.4529,0.88611 -0.87297,0.88611 -0.0985,0 -0.21004,-0.0263 -0.28224,-0.0525 l -0.0853,0.32162 c 0.0985,0.0459 0.23629,0.0722 0.37413,0.0722 z"
         style="font-style:normal;font-variant:normal;font-weight:300;font-stretch:normal;font-family:'Noto Sans CJK HK';-inkscape-font-specification:'Noto Sans CJK HK Light';fill:#000000;fill-opacity:1;stroke:none;stroke-width:0.102332;stroke-miterlimit:4;stroke-dasharray:none"
         id="path853" />
    </g>
  </g>
</svg>
