<?xml version="1.0" encoding="UTF-8" standalone="no"?>
<svg
   xmlns:dc="http://purl.org/dc/elements/1.1/"
   xmlns:cc="http://creativecommons.org/ns#"
   xmlns:rdf="http://www.w3.org/1999/02/22-rdf-syntax-ns#"
   xmlns:svg="http://www.w3.org/2000/svg"
   xmlns="http://www.w3.org/2000/svg"
   xmlns:sodipodi="http://sodipodi.sourceforge.net/DTD/sodipodi-0.dtd"
   xmlns:inkscape="http://www.inkscape.org/namespaces/inkscape"
   inkscape:export-ydpi="1684.21"
   inkscape:export-xdpi="1684.21"
   inkscape:export-filename="/home/jrmmendes/mjs.png"
   sodipodi:docname="logo.svg"
   inkscape:version="1.0 (4035a4fb49, 2020-05-01)"
   id="svg8"
   version="1.1"
   viewBox="0 0 30.1625 30.1625"
   height="30.1625mm"
   width="30.1625mm">
  <defs
     id="defs2" />
  <sodipodi:namedview
     inkscape:window-maximized="0"
     inkscape:window-y="0"
     inkscape:window-x="0"
     inkscape:window-height="720"
     inkscape:window-width="1366"
     showgrid="false"
     inkscape:document-rotation="0"
     inkscape:current-layer="layer1"
     inkscape:document-units="mm"
     inkscape:cy="108.56035"
     inkscape:cx="-80.183414"
     inkscape:zoom="0.98994949"
     inkscape:pageshadow="2"
     inkscape:pageopacity="0.0"
     borderopacity="1.0"
     bordercolor="#666666"
     pagecolor="#ffffff"
     id="base" />
  <metadata
     id="metadata5">
    <rdf:RDF>
      <cc:Work
         rdf:about="">
        <dc:format>image/svg+xml</dc:format>
        <dc:type
           rdf:resource="http://purl.org/dc/dcmitype/StillImage" />
        <dc:title></dc:title>
      </cc:Work>
    </rdf:RDF>
  </metadata>
  <g
     transform="translate(-108.13899,-89.996131)"
     id="layer1"
     inkscape:groupmode="layer"
     inkscape:label="Layer 1">
    <g
       transform="translate(50.724407,-18.747621)"
       id="layer1-3"
       inkscape:label="Layer 1">
      <rect
         ry="0"
         y="108.74375"
         x="57.414581"
         height="30.1625"
         width="30.1625"
         id="rect10"
         style="fill:#f1da00;fill-opacity:1;stroke-width:1.3;stroke-linecap:round;stroke-linejoin:round" />
      <g
         style="font-style:normal;font-variant:normal;font-weight:normal;font-stretch:normal;font-size:10.5833px;line-height:1.25;font-family:Pacifico;-inkscape-font-specification:Pacifico;fill:#000000;fill-opacity:1;stroke:none;stroke-width:0.264583"
         id="text837"
         aria-label="mjs">
        <path
           id="path861"
           style="font-style:normal;font-variant:normal;font-weight:300;font-stretch:normal;font-family:'Noto Sans CJK HK';-inkscape-font-specification:'Noto Sans CJK HK Light';stroke-width:0.264583"
           d="m 64.685363,126.48141 h 0.613832 v -4.22274 c 0.592664,-0.67733 1.132413,-1.016 1.629828,-1.016 0.83608,0 1.217079,0.53975 1.217079,1.7145 v 3.52424 h 0.613832 v -4.22274 c 0.603248,-0.67733 1.121829,-1.016 1.629828,-1.016 0.825497,0 1.217079,0.53975 1.217079,1.7145 v 3.52424 h 0.613832 v -3.60891 c 0,-1.44991 -0.560915,-2.18016 -1.693328,-2.18016 -0.656165,0 -1.269996,0.45508 -1.904994,1.143 -0.201083,-0.68792 -0.656165,-1.143 -1.555745,-1.143 -0.634998,0 -1.269996,0.4445 -1.777995,1.00542 h -0.02117 l -0.07408,-0.85725 h -0.507999 z" />
        <path
           id="path863"
           style="font-style:normal;font-variant:normal;font-weight:300;font-stretch:normal;font-family:'Noto Sans CJK HK';-inkscape-font-specification:'Noto Sans CJK HK Light';stroke-width:0.264583"
           d="m 73.543578,129.13782 c 0.920747,0 1.333496,-0.58209 1.333496,-1.70392 v -6.59339 h -0.624415 v 6.57223 c 0,0.70908 -0.116416,1.20649 -0.740831,1.20649 -0.222249,0 -0.433915,-0.0635 -0.582081,-0.11641 l -0.137583,0.48683 c 0.179916,0.0847 0.465665,0.14817 0.751414,0.14817 z m 1.005414,-9.62022 c 0.285749,0 0.486831,-0.20109 0.486831,-0.51859 0,-0.29633 -0.201082,-0.48683 -0.486831,-0.48683 -0.285749,0 -0.486832,0.1905 -0.486832,0.48683 0,0.3175 0.201083,0.51859 0.486832,0.51859 z" />
        <path
           id="path865"
           style="font-style:normal;font-variant:normal;font-weight:300;font-stretch:normal;font-family:'Noto Sans CJK HK';-inkscape-font-specification:'Noto Sans CJK HK Light';stroke-width:0.264583"
           d="m 78.369556,126.61899 c 1.24883,0 1.936744,-0.74083 1.936744,-1.60866 0,-1.09008 -0.952497,-1.397 -1.820327,-1.72508 -0.656165,-0.24342 -1.269996,-0.47625 -1.269996,-1.10066 0,-0.508 0.380999,-0.97367 1.227663,-0.97367 0.550331,0 0.941913,0.22225 1.322912,0.508 l 0.328082,-0.42333 c -0.412748,-0.33867 -1.015996,-0.60325 -1.640411,-0.60325 -1.195913,0 -1.852078,0.6985 -1.852078,1.524 0,0.97366 0.888998,1.32291 1.725078,1.61924 0.656165,0.23283 1.365246,0.53975 1.365246,1.2065 0,0.58208 -0.433915,1.06891 -1.291163,1.06891 -0.772581,0 -1.291162,-0.30691 -1.777994,-0.70908 l -0.328082,0.4445 c 0.518581,0.42333 1.248829,0.77258 2.074326,0.77258 z" />
      </g>
    </g>
  </g>
</svg>
